<svg width="24" height="24" viewBox="0 0 24 24" fill="none" xmlns="http://www.w3.org/2000/svg">
<path fill-rule="evenodd" clip-rule="evenodd" d="M12 5C10.1948 5 6.53028 5.67695 2.45959 10.3208C1.8468 11.021 1.8468 12.0666 2.45959 12.7668C6.53028 17.4107 10.1948 18.0876 12 18.0876C13.8052 18.0876 17.4697 17.4107 21.5404 12.7668C22.1532 12.0666 22.1532 11.021 21.5404 10.3208C17.4697 5.67695 13.8052 5 12 5ZM20.8634 12.1758C19.5366 13.6809 16.021 17.1852 12 17.1852C7.97892 17.1852 4.46332 13.6809 3.13651 12.1713C2.82208 11.8122 2.82208 11.2758 3.13651 10.9167C4.46332 9.40713 7.98118 5.90281 12 5.90281C16.0188 5.90281 19.5366 9.40713 20.8634 10.9167C21.1779 11.2758 21.1779 11.8122 20.8634 12.1713V12.1758ZM12 7.39206C9.70842 7.39829 7.8552 9.25992 7.85935 11.5515C7.8635 13.8431 9.72345 15.698 12.015 15.6959C14.3066 15.6938 16.1632 13.8356 16.1632 11.544C16.157 9.24912 14.2949 7.39206 12 7.39206ZM12 14.793C10.2069 14.7868 8.75778 13.3293 8.76192 11.5362C8.76607 9.74313 10.2219 8.29233 12.015 8.2944C13.8081 8.29647 15.2606 9.75062 15.2606 11.5437C15.2556 13.3406 13.7969 14.7943 12 14.793Z" fill="#54595F"/>
<path d="M2.45959 10.3208L2.27159 10.156L2.27146 10.1561L2.45959 10.3208ZM2.45959 12.7668L2.27146 12.9315L2.27159 12.9316L2.45959 12.7668ZM21.5404 12.7668L21.7284 12.9316L21.7285 12.9315L21.5404 12.7668ZM21.5404 10.3208L21.7285 10.1561L21.7284 10.156L21.5404 10.3208ZM20.8634 12.1758L21.051 12.3412L21.1134 12.2703V12.1758H20.8634ZM3.13651 12.1713L2.94842 12.336L2.94873 12.3364L3.13651 12.1713ZM3.13651 10.9167L2.94873 10.7517L2.94842 10.752L3.13651 10.9167ZM20.8634 10.9167L21.0515 10.752L21.0512 10.7517L20.8634 10.9167ZM20.8634 12.1713L20.6754 12.0066L20.6134 12.0773V12.1713H20.8634ZM7.85935 11.5515L8.10935 11.551L7.85935 11.5515ZM12 7.39206L12 7.14206L11.9993 7.14207L12 7.39206ZM16.1632 11.544L16.4132 11.544L16.4132 11.5433L16.1632 11.544ZM12 14.793L11.9991 15.043L11.9998 15.043L12 14.793ZM12.015 8.2944L12.0153 8.0444L12.015 8.2944ZM15.2606 11.5437L15.5106 11.5444V11.5437L15.2606 11.5437ZM2.64758 10.4856C6.67101 5.89567 10.2671 5.25 12 5.25V4.75C10.1225 4.75 6.38956 5.45822 2.27159 10.156L2.64758 10.4856ZM2.64772 12.6022C2.11743 11.9962 2.11743 11.0914 2.64772 10.4854L2.27146 10.1561C1.57618 10.9506 1.57618 12.137 2.27146 12.9315L2.64772 12.6022ZM12 17.8376C10.2671 17.8376 6.67101 17.1919 2.64758 12.602L2.27159 12.9316C6.38956 17.6294 10.1225 18.3376 12 18.3376V17.8376ZM21.3524 12.602C17.329 17.1919 13.7329 17.8376 12 17.8376V18.3376C13.8775 18.3376 17.6104 17.6294 21.7284 12.9316L21.3524 12.602ZM21.3523 10.4854C21.8826 11.0914 21.8826 11.9962 21.3523 12.6022L21.7285 12.9315C22.4238 12.137 22.4238 10.9506 21.7285 10.1561L21.3523 10.4854ZM12 5.25C13.7329 5.25 17.329 5.89567 21.3524 10.4856L21.7284 10.156C17.6104 5.45822 13.8775 4.75 12 4.75V5.25ZM12 17.4352C14.0816 17.4352 16.0156 16.5294 17.5837 15.4509C19.1543 14.3707 20.3802 13.102 21.051 12.3412L20.6759 12.0105C20.0199 12.7547 18.8246 13.9907 17.3004 15.0389C15.7738 16.0889 13.9394 16.9352 12 16.9352V17.4352ZM2.94873 12.3364C3.61962 13.0997 4.84558 14.3696 6.41619 15.4503C7.98438 16.5294 9.91834 17.4352 12 17.4352V16.9352C10.0606 16.9352 8.2262 16.0889 6.69962 15.0384C5.17546 13.9896 3.98021 12.7526 3.32429 12.0063L2.94873 12.3364ZM2.94842 10.752C2.55144 11.2054 2.55144 11.8826 2.94842 12.336L3.3246 12.0066C3.09272 11.7418 3.09272 11.3462 3.3246 11.0814L2.94842 10.752ZM12 5.65281C9.91946 5.65281 7.98549 6.55863 6.41705 7.6377C4.84618 8.71844 3.61966 9.98832 2.94873 10.7517L3.32429 11.0818C3.98018 10.3355 5.17599 9.09844 6.70045 8.04963C8.22734 6.99914 10.0617 6.15281 12 6.15281V5.65281ZM21.0512 10.7517C20.3803 9.98832 19.1538 8.71844 17.5829 7.6377C16.0145 6.55863 14.0805 5.65281 12 5.65281V6.15281C13.9383 6.15281 15.7726 6.99914 17.2995 8.04963C18.824 9.09844 20.0198 10.3355 20.6757 11.0818L21.0512 10.7517ZM21.0515 12.336C21.4485 11.8826 21.4485 11.2054 21.0515 10.752L20.6754 11.0814C20.9072 11.3462 20.9072 11.7418 20.6754 12.0066L21.0515 12.336ZM21.1134 12.1758V12.1713H20.6134V12.1758H21.1134ZM8.10935 11.551C8.10545 9.39745 9.84708 7.64792 12.0007 7.64206L11.9993 7.14207C9.56976 7.14867 7.60495 9.12239 7.60935 11.5519L8.10935 11.551ZM12.0148 15.4459C9.8612 15.4479 8.11325 13.7046 8.10935 11.551L7.60935 11.5519C7.61375 13.9815 9.58569 15.9481 12.0153 15.9459L12.0148 15.4459ZM15.9132 11.544C15.9132 13.6976 14.1684 15.444 12.0148 15.4459L12.0153 15.9459C14.4448 15.9437 16.4132 13.9736 16.4132 11.544L15.9132 11.544ZM12 7.64206C14.1571 7.64206 15.9074 9.38761 15.9132 11.5447L16.4132 11.5433C16.4066 9.11064 14.4327 7.14206 12 7.14206L12 7.64206ZM8.51193 11.5356C8.50746 13.4667 10.0681 15.0363 11.9991 15.043L12.0008 14.5431C10.3457 14.5373 9.0081 13.1919 9.01192 11.5368L8.51193 11.5356ZM12.0153 8.0444C10.0842 8.04217 8.51639 9.6046 8.51193 11.5356L9.01192 11.5368C9.01575 9.88167 10.3596 8.54249 12.0147 8.5444L12.0153 8.0444ZM15.5106 11.5437C15.5106 9.61266 13.9463 8.04662 12.0153 8.0444L12.0147 8.5444C13.6698 8.54631 15.0106 9.88858 15.0106 11.5437L15.5106 11.5437ZM11.9998 15.043C13.9346 15.0444 15.5052 13.4792 15.5106 11.5444L15.0106 11.543C15.006 13.2021 13.6592 14.5442 12.0001 14.543L11.9998 15.043Z" fill="#54595F"/>
</svg>
